<svg width="25" height="34" viewBox="0 0 25 34" fill="none" xmlns="http://www.w3.org/2000/svg">
<g clip-path="url(#clip0_40_250)">
<path d="M4.16667 0C1.86849 0 0 1.86849 0 4.16667V29.1667C0 31.4648 1.86849 33.3333 4.16667 33.3333H20.8333C23.1315 33.3333 25 31.4648 25 29.1667V10.4167H16.6667C15.5143 10.4167 14.5833 9.48568 14.5833 8.33333V0H4.16667ZM16.6667 0V8.33333H25L16.6667 0ZM4.16667 14.5833H5.72917C7.74089 14.5833 9.375 16.2174 9.375 18.2292C9.375 20.2409 7.74089 21.875 5.72917 21.875H5.20833V23.9583C5.20833 24.5312 4.73958 25 4.16667 25C3.59375 25 3.125 24.5312 3.125 23.9583V20.8333V15.625C3.125 15.0521 3.59375 14.5833 4.16667 14.5833ZM5.72917 19.7917C6.59505 19.7917 7.29167 19.0951 7.29167 18.2292C7.29167 17.3633 6.59505 16.6667 5.72917 16.6667H5.20833V19.7917H5.72917ZM10.4167 15.625C10.4167 15.0521 10.8854 14.5833 11.4583 14.5833H13.0208C14.7461 14.5833 16.1458 15.9831 16.1458 17.7083V21.875C16.1458 23.6003 14.7461 25 13.0208 25H11.4583C10.8854 25 10.4167 24.5312 10.4167 23.9583V15.625ZM12.5 22.9167H13.0208C13.5937 22.9167 14.0625 22.4479 14.0625 21.875V17.7083C14.0625 17.1354 13.5937 16.6667 13.0208 16.6667H12.5V22.9167ZM18.75 14.5833H21.875C22.4479 14.5833 22.9167 15.0521 22.9167 15.625C22.9167 16.1979 22.4479 16.6667 21.875 16.6667H19.7917V18.75H21.875C22.4479 18.75 22.9167 19.2188 22.9167 19.7917C22.9167 20.3646 22.4479 20.8333 21.875 20.8333H19.7917V23.9583C19.7917 24.5312 19.3229 25 18.75 25C18.1771 25 17.7083 24.5312 17.7083 23.9583V19.7917V15.625C17.7083 15.0521 18.1771 14.5833 18.75 14.5833Z" fill="black"/>
</g>
<defs>
<clipPath id="clip0_40_250">
<rect width="25" height="33.3333" fill="white"/>
</clipPath>
</defs>
</svg>
